<svg viewBox="0 0 14 14" fill="currentColor" xmlns="http://www.w3.org/2000/svg"><path d="M2.142 3.500 L 2.142 4.998 3.647 4.998 L 5.152 4.998 5.152 3.500 L 5.152 2.002 3.647 2.002 L 2.142 2.002 2.142 3.500 M8.148 3.500 L 8.148 4.998 9.646 4.998 L 11.144 4.998 11.144 3.500 L 11.144 2.002 9.646 2.002 L 8.148 2.002 8.148 3.500 M0.005 7.248 C 0.060 8.763,0.603 10.201,1.571 11.391 C 1.759 11.624,2.254 12.124,2.478 12.308 C 3.404 13.073,4.420 13.559,5.572 13.790 C 6.592 13.994,7.600 13.969,8.618 13.714 C 10.302 13.291,11.780 12.236,12.729 10.780 C 13.393 9.762,13.800 8.502,13.839 7.350 C 13.844 7.231,13.849 7.103,13.853 7.067 L 13.859 7.000 12.469 7.000 L 11.078 7.000 11.070 7.213 C 11.014 8.569,10.254 9.842,9.079 10.552 C 8.594 10.844,8.075 11.029,7.490 11.118 C 7.219 11.159,6.678 11.162,6.412 11.125 C 5.529 11.001,4.733 10.632,4.127 10.067 C 3.297 9.294,2.833 8.305,2.777 7.189 L 2.768 7.000 1.382 7.000 L -0.004 7.000 0.005 7.248 " stroke="none" fill-rule="evenodd"/></svg>